# Blender v2.76 (sub 0) OBJ File: 'tunnel.blend'
# www.blender.org
mtllib tunnel.mtl
o Cube
v 1548.124756 1376.545166 -3780.599609
v 1548.124756 1231.949097 -3780.785400
v -1580.009033 1231.949097 -3780.785400
v -1580.008301 1376.545166 -3780.599609
v 1548.125488 1370.917114 591.842712
v 1548.123779 1226.320923 591.656616
v -1580.009521 1226.321045 591.656616
v -1580.008667 1370.917114 591.842712
v 1548.124756 -498.150818 -3779.769287
v 1548.124756 -498.150818 -3021.374268
v -1580.009033 -498.150818 -3021.374268
v -1580.008301 -498.150818 -3779.769287
v 1548.125488 1371.878540 -3779.769043
v 1548.123779 1371.878540 -3021.373779
v -1580.009521 1371.878540 -3021.374268
v -1580.008667 1371.878540 -3779.769287
v 1548.124756 -498.150818 -171.204086
v 1548.124756 -498.150818 587.190918
v -1580.009033 -498.150818 587.190857
v -1580.008301 -498.150818 -171.204239
v 1548.125488 1371.878540 -171.203903
v 1548.123779 1371.878540 587.191162
v -1580.009521 1371.878540 587.190796
v -1580.008667 1371.878540 -171.204117
vn 0.000000 0.001300 -1.000000
vn -0.000000 -0.001300 1.000000
vn 1.000000 -0.000000 0.000000
vn -0.000000 -1.000000 -0.001300
vn -1.000000 0.000000 -0.000000
vn -0.000000 1.000000 0.001300
vn 0.000000 -1.000000 -0.000000
vn 0.000000 1.000000 0.000000
vn -0.000000 -0.000000 1.000000
vn 0.000000 0.000000 -1.000000
usemtl Material
s off
f 1//1 2//1 3//1 4//1
f 5//2 8//2 7//2 6//2
f 1//3 5//3 6//3 2//3
f 2//4 6//4 7//4 3//4
f 3//5 7//5 8//5 4//5
f 5//6 1//6 4//6 8//6
f 9//7 10//7 11//7 12//7
f 13//8 16//8 15//8 14//8
f 9//3 13//3 14//3 10//3
f 10//9 14//9 15//9 11//9
f 11//5 15//5 16//5 12//5
f 13//10 9//10 12//10 16//10
f 17//7 18//7 19//7 20//7
f 21//8 24//8 23//8 22//8
f 17//3 21//3 22//3 18//3
f 18//9 22//9 23//9 19//9
f 19//5 23//5 24//5 20//5
f 21//10 17//10 20//10 24//10
